<svg id="Layer_1" height="100%" viewBox="0 0 512 512" width="100%" xmlns="http://www.w3.org/2000/svg" data-name="Layer 1"><path d="m256 138.667a117.333 117.333 0 1 0 117.333 117.333 117.333 117.333 0 0 0 -117.333-117.333zm18.75 167.508a42.719 42.719 0 0 1 -8.083 3.044v10.781a10.667 10.667 0 1 1 -21.333 0v-10.25a57.623 57.623 0 0 1 -22.318-10.2 10.666 10.666 0 1 1 12.635-17.187c14.719 10.82 26.271 6.385 29.469 4.771 4.516-2.286 6.88-5.727 6.88-7.943 0-5.062-4.672-7.7-15.141-11.7-1.885-.721-3.641-1.4-5.167-2.068-1.047-.464-2.307-.935-3.687-1.461-9.526-3.615-29.339-11.141-29.339-31.828 0-10.841 7.12-21.18 18.583-26.979a42.669 42.669 0 0 1 8.083-3v-10.155a10.667 10.667 0 1 1 21.333 0v9.657a57.442 57.442 0 0 1 22.318 10.121 10.666 10.666 0 1 1 -12.635 17.187c-14.719-10.82-26.271-6.385-29.469-4.771-4.516 2.286-6.88 5.727-6.88 7.943 0 5.018 5.474 8.049 15.578 11.885 1.776.674 3.385 1.292 4.729 1.885 1.224.539 2.646 1.076 4.161 1.656 10.089 3.854 28.865 11.029 28.865 31.63.001 10.843-7.118 21.182-18.582 26.981z"></path><path d="m457.052 230.633a202.662 202.662 0 0 0 -197.686-177.273l13.9-13.787a10.666 10.666 0 1 0 -15.021-15.146l-33.787 33.513a10.663 10.663 0 0 0 -.062 15.083l33.786 34.065a10.666 10.666 0 1 0 15.146-15.021l-17.228-17.367a181.339 181.339 0 0 1 113.2 322.91 10.665 10.665 0 1 0 13.344 16.641c55.481-44.496 83.299-113.136 74.408-183.618z"></path><path d="m253.818 404.911a10.666 10.666 0 1 0 -15.146 15.021l17.228 17.368a181.335 181.335 0 0 1 -113.233-322.87 10.668 10.668 0 0 0 -13.354-16.641c-55.454 44.495-83.256 113.122-74.365 183.578a202.651 202.651 0 0 0 197.69 177.268l-13.9 13.792a10.666 10.666 0 1 0 15.021 15.146l33.786-33.513a10.663 10.663 0 0 0 .063-15.083z"></path></svg>