<svg id="Layer_1" height="100%" viewBox="0 0 512 512" width="100%" xmlns="http://www.w3.org/2000/svg" data-name="Layer 1"><path d="m480.641 228.776-37.125-43.568a20.516 20.516 0 0 1 -4.865-11.745l-4.557-57.057a41.8 41.8 0 0 0 -38.5-38.505l-57.052-4.547a20.588 20.588 0 0 1 -11.755-4.87l-43.563-37.125a41.809 41.809 0 0 0 -54.448 0l-43.568 37.125a20.516 20.516 0 0 1 -11.745 4.865l-57.057 4.557a41.8 41.8 0 0 0 -38.505 38.5l-4.547 57.052a20.588 20.588 0 0 1 -4.87 11.755l-37.125 43.563a41.8 41.8 0 0 0 0 54.448l37.125 43.568a20.516 20.516 0 0 1 4.865 11.745l4.557 57.057a41.8 41.8 0 0 0 38.5 38.505l57.052 4.547a20.588 20.588 0 0 1 11.755 4.87l43.562 37.125a41.793 41.793 0 0 0 54.448 0l43.568-37.125a20.516 20.516 0 0 1 11.745-4.865l57.057-4.557a41.8 41.8 0 0 0 38.505-38.5l4.547-57.052a20.588 20.588 0 0 1 4.87-11.755l37.125-43.562a41.8 41.8 0 0 0 .001-54.449zm-277.974-58.109a32 32 0 1 1 -32 32 32.035 32.035 0 0 1 32-32zm106.666 170.666a32 32 0 1 1 32-32 32.035 32.035 0 0 1 -32 32zm28.875-152.458-149.333 149.333a10.666 10.666 0 0 1 -15.083-15.083l149.333-149.333a10.666 10.666 0 0 1 15.083 15.083z"></path><path d="m309.333 298.667a10.667 10.667 0 1 0 10.667 10.666 10.679 10.679 0 0 0 -10.667-10.666z"></path><path d="m202.667 213.333a10.667 10.667 0 1 0 -10.667-10.666 10.679 10.679 0 0 0 10.667 10.666z"></path></svg>