<svg id="Layer_1" height="100%" viewBox="0 0 512 512" width="100%" xmlns="http://www.w3.org/2000/svg" data-name="Layer 1"><path d="m72.078 341.333h-50.744a32 32 0 0 0 32 32h5.6a58.374 58.374 0 0 1 13.144-32z"></path><path d="m320 341.333h-157.411a58.374 58.374 0 0 1 13.142 32h144.269a10.667 10.667 0 0 0 10.667-10.667v-10.666a10.667 10.667 0 0 0 -10.667-10.667z"></path><circle cx="117.334" cy="378.667" r="37.333"></circle><path d="m507.219 275.173-40.985-90.163a42.749 42.749 0 0 0 -38.834-25.01h-64.733a10.667 10.667 0 0 0 -10.667 10.667v167.817a58.588 58.588 0 0 1 101.064 34.849h26.936a32 32 0 0 0 32-32v-44.091a53.32 53.32 0 0 0 -4.781-22.069zm-48.633-8.507h-69.253a10.667 10.667 0 0 1 -10.666-10.666v-42.667a10.667 10.667 0 0 1 10.667-10.667h42.991a21.333 21.333 0 0 1 19.421 12.5l16.554 36.42a10.667 10.667 0 0 1 -9.714 15.081z"></path><circle cx="394.667" cy="378.667" r="37.333"></circle><path d="m298.667 96h-245.334a32 32 0 0 0 -32 32v128h-10.1c-5.308 0-10.233 3.63-11.087 8.875a10.675 10.675 0 0 0 10.521 12.459h26.1c5.314 0 10.238 3.63 11.092 8.875a10.675 10.675 0 0 1 -10.521 12.459h-26.1c-5.313-.001-10.238 3.632-11.092 8.873a10.675 10.675 0 0 0 10.521 12.459h309.333a10.667 10.667 0 0 0 10.667-10.667v-181.333a32 32 0 0 0 -32-32z"></path></svg>