<svg width="77" height="37" viewBox="0 0 77 37" fill="none" xmlns="http://www.w3.org/2000/svg">
<ellipse cx="38.5" cy="18.5" rx="38.5" ry="18.5" fill="#E76769"></ellipse>
<path d="M51.3 2.74468C51.3 3.71526 51.6793 4.64609 52.3544 5.33239C53.0295 6.01869 53.9452 6.40426 54.9 6.40426C53.9452 6.40426 53.0295 6.78982 52.3544 7.47612C51.6793 8.16242 51.3 9.09325 51.3 10.0638C51.3 9.09325 50.9207 8.16242 50.2456 7.47612C49.5705 6.78982 48.6548 6.40426 47.7 6.40426C48.6548 6.40426 49.5705 6.01869 50.2456 5.33239C50.9207 4.64609 51.3 3.71526 51.3 2.74468Z" fill="white"></path>
<path fill-rule="evenodd" clip-rule="evenodd" d="M69.264 19.224L68.9 16L68.536 19.224L67.132 18.132L68.172 19.536L65 19.9L68.224 20.264L67.08 21.72L68.536 20.628L68.9 23.8L69.264 20.628L70.72 21.72L69.576 20.264L72.8 19.9L69.628 19.536L70.668 18.132L69.264 19.224Z" fill="white"></path>
<path fill-rule="evenodd" clip-rule="evenodd" d="M27.264 5.224L26.9 2L26.536 5.224L25.132 4.132L26.172 5.536L23 5.9L26.224 6.264L25.08 7.72L26.536 6.628L26.9 9.8L27.264 6.628L28.72 7.72L27.576 6.264L30.8 5.9L27.628 5.536L28.668 4.132L27.264 5.224Z" fill="white"></path>
<path d="M12.1945 18L9.61449 11H11.4845L13.1595 15.89L14.8045 11H16.6445L14.0845 18H12.1945ZM18.3882 18.15C18.0482 18.15 17.7432 18.085 17.4732 17.955C17.2032 17.8217 16.9899 17.6333 16.8332 17.39C16.6766 17.1433 16.5982 16.8483 16.5982 16.505C16.5982 16.2117 16.6699 15.9517 16.8132 15.725C16.9599 15.4983 17.1799 15.3117 17.4732 15.165C17.7666 15.0183 18.1349 14.92 18.5782 14.87C19.0249 14.8167 19.5466 14.8167 20.1432 14.87L20.1582 15.89C19.8416 15.8333 19.5549 15.805 19.2982 15.805C19.0449 15.8017 18.8282 15.8233 18.6482 15.87C18.4716 15.9133 18.3349 15.9817 18.2382 16.075C18.1416 16.1683 18.0932 16.2833 18.0932 16.42C18.0932 16.5967 18.1599 16.7317 18.2932 16.825C18.4299 16.9183 18.6116 16.965 18.8382 16.965C19.0349 16.965 19.2116 16.93 19.3682 16.86C19.5282 16.79 19.6549 16.6883 19.7482 16.555C19.8449 16.4183 19.8932 16.2517 19.8932 16.055V14.89C19.8932 14.7067 19.8549 14.545 19.7782 14.405C19.7016 14.265 19.5799 14.1567 19.4132 14.08C19.2499 14 19.0316 13.96 18.7582 13.96C18.4949 13.96 18.2332 14 17.9732 14.08C17.7132 14.1567 17.4799 14.2733 17.2732 14.43L16.8532 13.305C17.1832 13.0983 17.5366 12.9467 17.9132 12.85C18.2899 12.75 18.6599 12.7 19.0232 12.7C19.5032 12.7 19.9249 12.7767 20.2882 12.93C20.6549 13.0833 20.9416 13.32 21.1482 13.64C21.3549 13.96 21.4582 14.37 21.4582 14.87V18H20.0432V17.46C19.8799 17.68 19.6549 17.85 19.3682 17.97C19.0816 18.09 18.7549 18.15 18.3882 18.15ZM22.654 18V10.8H24.294V18H22.654ZM27.9768 18.15C27.4168 18.15 26.9252 18.0383 26.5018 17.815C26.0785 17.5883 25.7485 17.2733 25.5118 16.87C25.2752 16.4633 25.1568 15.9883 25.1568 15.445C25.1568 15.0517 25.2252 14.69 25.3618 14.36C25.5018 14.03 25.6952 13.745 25.9418 13.505C26.1918 13.265 26.4852 13.08 26.8218 12.95C27.1618 12.8167 27.5352 12.75 27.9418 12.75C28.3885 12.75 28.7868 12.83 29.1368 12.99C29.4868 13.1467 29.7752 13.3667 30.0018 13.65C30.2318 13.93 30.3902 14.2617 30.4768 14.645C30.5635 15.025 30.5668 15.4383 30.4868 15.885H26.6568C26.6602 16.085 26.7202 16.26 26.8368 16.41C26.9535 16.56 27.1135 16.6783 27.3168 16.765C27.5202 16.8483 27.7568 16.89 28.0268 16.89C28.3268 16.89 28.6118 16.8517 28.8818 16.775C29.1518 16.695 29.4102 16.5733 29.6568 16.41L30.1718 17.52C30.0152 17.64 29.8118 17.7483 29.5618 17.845C29.3152 17.9383 29.0518 18.0117 28.7718 18.065C28.4952 18.1217 28.2302 18.15 27.9768 18.15ZM26.7568 14.78H28.9268C28.9202 14.5233 28.8252 14.3183 28.6418 14.165C28.4585 14.0117 28.2102 13.935 27.8968 13.935C27.5802 13.935 27.3168 14.0117 27.1068 14.165C26.9002 14.3183 26.7835 14.5233 26.7568 14.78ZM31.3993 18V12.9H33.0393V13.44C33.2293 13.2 33.4543 13.025 33.7143 12.915C33.9743 12.805 34.2477 12.75 34.5343 12.75C35.0143 12.75 35.4093 12.845 35.7193 13.035C36.0293 13.2217 36.2577 13.465 36.4043 13.765C36.5543 14.0617 36.6293 14.3767 36.6293 14.71V18H34.9893V15.225C34.9893 14.9183 34.9077 14.6767 34.7443 14.5C34.5843 14.3233 34.3477 14.235 34.0343 14.235C33.8343 14.235 33.6593 14.2783 33.5093 14.365C33.3627 14.4517 33.2477 14.575 33.1643 14.735C33.081 14.8917 33.0393 15.0717 33.0393 15.275V18H31.3993ZM39.9896 18.15C39.423 18.15 38.978 17.9917 38.6546 17.675C38.3313 17.355 38.1696 16.8783 38.1696 16.245V11.44H39.8096V12.9H41.0046V14.2H39.8096V15.96C39.8096 16.2333 39.8696 16.425 39.9896 16.535C40.1096 16.645 40.2646 16.7 40.4546 16.7C40.558 16.7 40.6596 16.6883 40.7596 16.665C40.863 16.6383 40.958 16.6 41.0446 16.55L41.2546 17.835C41.098 17.9217 40.9096 17.995 40.6896 18.055C40.4696 18.1183 40.2363 18.15 39.9896 18.15ZM37.1796 14.2V12.9H38.3196V14.2H37.1796ZM42.1368 18V12.9H43.7768V18H42.1368ZM42.9568 12.145C42.6935 12.145 42.4635 12.0633 42.2668 11.9C42.0735 11.7333 41.9768 11.5117 41.9768 11.235C41.9768 10.9517 42.0735 10.7283 42.2668 10.565C42.4635 10.4017 42.6935 10.32 42.9568 10.32C43.2235 10.32 43.4535 10.4017 43.6468 10.565C43.8402 10.7283 43.9368 10.9517 43.9368 11.235C43.9368 11.5117 43.8402 11.7333 43.6468 11.9C43.4535 12.0633 43.2235 12.145 42.9568 12.145ZM45.0446 18V12.9H46.6846V13.44C46.8746 13.2 47.0996 13.025 47.3596 12.915C47.6196 12.805 47.893 12.75 48.1796 12.75C48.6596 12.75 49.0546 12.845 49.3646 13.035C49.6746 13.2217 49.903 13.465 50.0496 13.765C50.1996 14.0617 50.2746 14.3767 50.2746 14.71V18H48.6346V15.225C48.6346 14.9183 48.553 14.6767 48.3896 14.5C48.2296 14.3233 47.993 14.235 47.6796 14.235C47.4796 14.235 47.3046 14.2783 47.1546 14.365C47.008 14.4517 46.893 14.575 46.8096 14.735C46.7263 14.8917 46.6846 15.0717 46.6846 15.275V18H45.0446ZM53.9026 18.15C53.3426 18.15 52.851 18.0383 52.4276 17.815C52.0043 17.5883 51.6743 17.2733 51.4376 16.87C51.201 16.4633 51.0826 15.9883 51.0826 15.445C51.0826 15.0517 51.151 14.69 51.2876 14.36C51.4276 14.03 51.621 13.745 51.8676 13.505C52.1176 13.265 52.411 13.08 52.7476 12.95C53.0876 12.8167 53.461 12.75 53.8676 12.75C54.3143 12.75 54.7126 12.83 55.0626 12.99C55.4126 13.1467 55.701 13.3667 55.9276 13.65C56.1576 13.93 56.316 14.2617 56.4026 14.645C56.4893 15.025 56.4926 15.4383 56.4126 15.885H52.5826C52.586 16.085 52.646 16.26 52.7626 16.41C52.8793 16.56 53.0393 16.6783 53.2426 16.765C53.446 16.8483 53.6826 16.89 53.9526 16.89C54.2526 16.89 54.5376 16.8517 54.8076 16.775C55.0776 16.695 55.336 16.5733 55.5826 16.41L56.0976 17.52C55.941 17.64 55.7376 17.7483 55.4876 17.845C55.241 17.9383 54.9776 18.0117 54.6976 18.065C54.421 18.1217 54.156 18.15 53.9026 18.15ZM52.6826 14.78H54.8526C54.846 14.5233 54.751 14.3183 54.5676 14.165C54.3843 14.0117 54.136 13.935 53.8226 13.935C53.506 13.935 53.2426 14.0117 53.0326 14.165C52.826 14.3183 52.7093 14.5233 52.6826 14.78ZM57.2725 14.47L56.7875 13.795C57.0775 13.6683 57.3358 13.51 57.5625 13.32C57.7925 13.13 57.9591 12.94 58.0625 12.75C57.8658 12.76 57.6841 12.73 57.5175 12.66C57.3541 12.59 57.2225 12.4867 57.1225 12.35C57.0258 12.2133 56.9775 12.0517 56.9775 11.865C56.9775 11.575 57.0691 11.3417 57.2525 11.165C57.4391 10.985 57.6758 10.895 57.9625 10.895C58.2858 10.895 58.5491 11.005 58.7525 11.225C58.9591 11.4417 59.0625 11.7317 59.0625 12.095C59.0625 12.3783 58.9958 12.6583 58.8625 12.935C58.7325 13.2117 58.5358 13.48 58.2725 13.74C58.0091 13.9967 57.6758 14.24 57.2725 14.47ZM61.8159 18.14C61.3426 18.14 60.9092 18.0817 60.5159 17.965C60.1259 17.8483 59.7892 17.6833 59.5059 17.47L60.0159 16.345C60.2926 16.5217 60.5892 16.6617 60.9059 16.765C61.2226 16.865 61.5226 16.915 61.8059 16.915C62.0659 16.915 62.2642 16.88 62.4009 16.81C62.5376 16.7367 62.6059 16.6317 62.6059 16.495C62.6059 16.375 62.5426 16.2867 62.4159 16.23C62.2926 16.1733 62.0492 16.1117 61.6859 16.045C60.9992 15.9283 60.4959 15.7367 60.1759 15.47C59.8592 15.2 59.7009 14.8317 59.7009 14.365C59.7009 14.0317 59.7926 13.74 59.9759 13.49C60.1592 13.24 60.4126 13.0467 60.7359 12.91C61.0626 12.77 61.4376 12.7 61.8609 12.7C62.2742 12.7 62.6642 12.755 63.0309 12.865C63.4009 12.975 63.7176 13.1283 63.9809 13.325L63.4859 14.45C63.3492 14.3467 63.1909 14.255 63.0109 14.175C62.8342 14.095 62.6509 14.0333 62.4609 13.99C62.2709 13.9467 62.0859 13.925 61.9059 13.925C61.6826 13.925 61.5009 13.96 61.3609 14.03C61.2242 14.0967 61.1559 14.19 61.1559 14.31C61.1559 14.4333 61.2159 14.525 61.3359 14.585C61.4559 14.645 61.6959 14.7133 62.0559 14.79C62.7826 14.9367 63.2976 15.135 63.6009 15.385C63.9042 15.6317 64.0559 15.9783 64.0559 16.425C64.0559 16.7717 63.9609 17.0733 63.7709 17.33C63.5842 17.5867 63.3226 17.7867 62.9859 17.93C62.6526 18.07 62.2626 18.14 61.8159 18.14ZM17.0568 28V21H19.4568C20.1835 21 20.8202 21.1483 21.3668 21.445C21.9168 21.7417 22.3452 22.1533 22.6518 22.68C22.9585 23.2033 23.1118 23.81 23.1118 24.5C23.1118 25.02 23.0235 25.495 22.8468 25.925C22.6735 26.3517 22.4252 26.72 22.1018 27.03C21.7785 27.34 21.3935 27.58 20.9468 27.75C20.5002 27.9167 20.0035 28 19.4568 28H17.0568ZM18.7168 26.455H19.3718C19.6718 26.455 19.9435 26.4133 20.1868 26.33C20.4302 26.2467 20.6402 26.1217 20.8168 25.955C20.9968 25.7883 21.1335 25.5833 21.2268 25.34C21.3235 25.0967 21.3718 24.8167 21.3718 24.5C21.3718 24.0767 21.2885 23.72 21.1218 23.43C20.9552 23.1367 20.7202 22.9167 20.4168 22.77C20.1168 22.62 19.7685 22.545 19.3718 22.545H18.7168V26.455ZM25.5222 28.15C25.1822 28.15 24.8772 28.085 24.6072 27.955C24.3372 27.8217 24.1239 27.6333 23.9672 27.39C23.8106 27.1433 23.7322 26.8483 23.7322 26.505C23.7322 26.2117 23.8039 25.9517 23.9472 25.725C24.0939 25.4983 24.3139 25.3117 24.6072 25.165C24.9006 25.0183 25.2689 24.92 25.7122 24.87C26.1589 24.8167 26.6806 24.8167 27.2772 24.87L27.2922 25.89C26.9756 25.8333 26.6889 25.805 26.4322 25.805C26.1789 25.8017 25.9622 25.8233 25.7822 25.87C25.6056 25.9133 25.4689 25.9817 25.3722 26.075C25.2756 26.1683 25.2272 26.2833 25.2272 26.42C25.2272 26.5967 25.2939 26.7317 25.4272 26.825C25.5639 26.9183 25.7456 26.965 25.9722 26.965C26.1689 26.965 26.3456 26.93 26.5022 26.86C26.6622 26.79 26.7889 26.6883 26.8822 26.555C26.9789 26.4183 27.0272 26.2517 27.0272 26.055V24.89C27.0272 24.7067 26.9889 24.545 26.9122 24.405C26.8356 24.265 26.7139 24.1567 26.5472 24.08C26.3839 24 26.1656 23.96 25.8922 23.96C25.6289 23.96 25.3672 24 25.1072 24.08C24.8472 24.1567 24.6139 24.2733 24.4072 24.43L23.9872 23.305C24.3172 23.0983 24.6706 22.9467 25.0472 22.85C25.4239 22.75 25.7939 22.7 26.1572 22.7C26.6372 22.7 27.0589 22.7767 27.4222 22.93C27.7889 23.0833 28.0756 23.32 28.2822 23.64C28.4889 23.96 28.5922 24.37 28.5922 24.87V28H27.1772V27.46C27.0139 27.68 26.7889 27.85 26.5022 27.97C26.2156 28.09 25.8889 28.15 25.5222 28.15ZM30.4504 30.235C30.217 30.235 29.9887 30.2117 29.7654 30.165C29.542 30.1183 29.337 30.0433 29.1504 29.94L29.4954 28.57C29.6054 28.6267 29.7254 28.6717 29.8554 28.705C29.9854 28.7383 30.107 28.755 30.2204 28.755C30.4037 28.755 30.5587 28.7167 30.6854 28.64C30.8154 28.5633 30.9087 28.4367 30.9654 28.26L31.0404 28.02L29.0604 22.9H30.8404L31.9704 26.395L33.0654 22.9H34.8004L32.6854 28.505C32.512 28.9383 32.3104 29.28 32.0804 29.53C31.8537 29.7833 31.602 29.9633 31.3254 30.07C31.0487 30.18 30.757 30.235 30.4504 30.235ZM40.2054 28.15C39.6754 28.15 39.1604 28.0717 38.6604 27.915C38.1604 27.7583 37.737 27.5317 37.3904 27.235L38.1704 25.995C38.317 26.1517 38.5037 26.2867 38.7304 26.4C38.957 26.5133 39.1987 26.6017 39.4554 26.665C39.7154 26.725 39.967 26.755 40.2104 26.755C40.5537 26.755 40.832 26.6983 41.0454 26.585C41.262 26.4683 41.3704 26.3 41.3704 26.08C41.3704 25.9 41.292 25.7483 41.1354 25.625C40.982 25.5017 40.6937 25.3833 40.2704 25.27L39.6704 25.1C38.9504 24.9 38.432 24.6267 38.1154 24.28C37.7987 23.9333 37.6404 23.5167 37.6404 23.03C37.6404 22.7167 37.707 22.4283 37.8404 22.165C37.9737 21.8983 38.1604 21.6683 38.4004 21.475C38.6404 21.2783 38.922 21.1267 39.2454 21.02C39.572 20.91 39.927 20.855 40.3104 20.855C40.8404 20.855 41.332 20.9333 41.7854 21.09C42.242 21.2433 42.6087 21.4533 42.8854 21.72L42.0754 22.92C41.9487 22.7867 41.792 22.67 41.6054 22.57C41.4187 22.47 41.2154 22.3917 40.9954 22.335C40.7754 22.2783 40.5537 22.25 40.3304 22.25C40.1104 22.25 39.9187 22.2783 39.7554 22.335C39.592 22.3917 39.4637 22.4733 39.3704 22.58C39.2804 22.6833 39.2354 22.8067 39.2354 22.95C39.2354 23.0667 39.2687 23.165 39.3354 23.245C39.4054 23.3217 39.5204 23.395 39.6804 23.465C39.8437 23.535 40.0637 23.6117 40.3404 23.695L40.9504 23.875C41.667 24.085 42.1854 24.3483 42.5054 24.665C42.8254 24.9817 42.9854 25.3933 42.9854 25.9C42.9854 26.3433 42.872 26.735 42.6454 27.075C42.4187 27.4117 42.097 27.675 41.6804 27.865C41.267 28.055 40.7754 28.15 40.2054 28.15ZM45.3371 28.15C44.9971 28.15 44.6921 28.085 44.4221 27.955C44.1521 27.8217 43.9387 27.6333 43.7821 27.39C43.6254 27.1433 43.5471 26.8483 43.5471 26.505C43.5471 26.2117 43.6187 25.9517 43.7621 25.725C43.9087 25.4983 44.1287 25.3117 44.4221 25.165C44.7154 25.0183 45.0837 24.92 45.5271 24.87C45.9737 24.8167 46.4954 24.8167 47.0921 24.87L47.1071 25.89C46.7904 25.8333 46.5037 25.805 46.2471 25.805C45.9937 25.8017 45.7771 25.8233 45.5971 25.87C45.4204 25.9133 45.2837 25.9817 45.1871 26.075C45.0904 26.1683 45.0421 26.2833 45.0421 26.42C45.0421 26.5967 45.1087 26.7317 45.2421 26.825C45.3787 26.9183 45.5604 26.965 45.7871 26.965C45.9837 26.965 46.1604 26.93 46.3171 26.86C46.4771 26.79 46.6037 26.6883 46.6971 26.555C46.7937 26.4183 46.8421 26.2517 46.8421 26.055V24.89C46.8421 24.7067 46.8037 24.545 46.7271 24.405C46.6504 24.265 46.5287 24.1567 46.3621 24.08C46.1987 24 45.9804 23.96 45.7071 23.96C45.4437 23.96 45.1821 24 44.9221 24.08C44.6621 24.1567 44.4287 24.2733 44.2221 24.43L43.8021 23.305C44.1321 23.0983 44.4854 22.9467 44.8621 22.85C45.2387 22.75 45.6087 22.7 45.9721 22.7C46.4521 22.7 46.8737 22.7767 47.2371 22.93C47.6037 23.0833 47.8904 23.32 48.0971 23.64C48.3037 23.96 48.4071 24.37 48.4071 24.87V28H46.9921V27.46C46.8287 27.68 46.6037 27.85 46.3171 27.97C46.0304 28.09 45.7037 28.15 45.3371 28.15ZM49.6029 28V20.8H51.2429V28H49.6029ZM54.9257 28.15C54.3657 28.15 53.874 28.0383 53.4507 27.815C53.0273 27.5883 52.6973 27.2733 52.4607 26.87C52.224 26.4633 52.1057 25.9883 52.1057 25.445C52.1057 25.0517 52.174 24.69 52.3107 24.36C52.4507 24.03 52.644 23.745 52.8907 23.505C53.1407 23.265 53.434 23.08 53.7707 22.95C54.1107 22.8167 54.484 22.75 54.8907 22.75C55.3373 22.75 55.7357 22.83 56.0857 22.99C56.4357 23.1467 56.724 23.3667 56.9507 23.65C57.1807 23.93 57.339 24.2617 57.4257 24.645C57.5123 25.025 57.5157 25.4383 57.4357 25.885H53.6057C53.609 26.085 53.669 26.26 53.7857 26.41C53.9023 26.56 54.0623 26.6783 54.2657 26.765C54.469 26.8483 54.7057 26.89 54.9757 26.89C55.2757 26.89 55.5607 26.8517 55.8307 26.775C56.1007 26.695 56.359 26.5733 56.6057 26.41L57.1207 27.52C56.964 27.64 56.7607 27.7483 56.5107 27.845C56.264 27.9383 56.0007 28.0117 55.7207 28.065C55.444 28.1217 55.179 28.15 54.9257 28.15ZM53.7057 24.78H55.8757C55.869 24.5233 55.774 24.3183 55.5907 24.165C55.4073 24.0117 55.159 23.935 54.8457 23.935C54.529 23.935 54.2657 24.0117 54.0557 24.165C53.849 24.3183 53.7323 24.5233 53.7057 24.78Z" fill="white"></path>
</svg>